# Blender v2.79 (sub 0) OBJ File: 'smallroomleft.blend'
# www.blender.org
mtllib smallroomleft.mtl
o smallroomleft
v -5.000000 0.000000 0.000000
v -5.000000 2.000000 0.000000
v -5.000000 0.000000 -6.000000
v -5.000000 2.000000 -6.000000
v 1.000000 0.000000 0.000000
v 1.000000 2.000000 0.000000
v 1.000000 0.000000 -6.000000
v 1.000000 2.000000 -6.000000
v -1.000000 2.000000 -6.000000
v -1.000000 0.000000 -6.000000
v -1.000000 2.000000 0.000000
v -1.000000 0.000000 0.000000
v -5.000000 2.000000 -4.000000
v -5.000000 0.000000 -4.000000
v 1.000000 2.000000 -4.000000
v 1.000000 0.000000 -4.000000
v -1.000000 2.000000 -4.000000
v -1.000000 0.000000 -4.000000
vn 0.0000 0.0000 1.0000
vn -1.0000 0.0000 0.0000
vn 0.0000 0.0000 -1.0000
vn 0.0000 1.0000 0.0000
vn 0.0000 -1.0000 0.0000
vn 1.0000 0.0000 0.0000
usemtl Material
s off
f 9//1 10//1 7//1 8//1
f 15//2 16//2 5//2 6//2
f 11//3 12//3 1//3 2//3
f 18//4 16//4 7//4 10//4
f 17//5 13//5 4//5 9//5
f 15//5 17//5 9//5 8//5
f 14//4 18//4 10//4 3//4
f 4//1 3//1 10//1 9//1
f 1//4 12//4 18//4 14//4
f 6//5 11//5 17//5 15//5
f 11//5 2//5 13//5 17//5
f 12//4 5//4 16//4 18//4
f 8//2 7//2 16//2 15//2
f 2//6 1//6 14//6 13//6
