# Blender v2.79 (sub 0) OBJ File: 'turnright.blend'
# www.blender.org
mtllib turnright.mtl
o turnright
v -1.000000 0.000000 0.000000
v 1.000000 0.000000 0.000000
v -1.000000 2.000000 0.000000
v 1.000000 2.000000 0.000000
v -1.000000 0.000000 -2.000000
v 1.000000 0.000000 -2.000000
v -1.000000 2.000000 -2.000000
v 1.000000 2.000000 -2.000000
vn 0.0000 1.0000 0.0000
vn 0.0000 0.0000 1.0000
vn 0.0000 -1.0000 0.0000
vn 1.0000 0.0000 0.0000
usemtl Material
s off
f 1//1 2//1 6//1 5//1
f 7//2 5//2 6//2 8//2
f 4//3 3//3 7//3 8//3
f 3//4 1//4 5//4 7//4
