# Blender v2.79 (sub 0) OBJ File: 'upcorridor.blend'
# www.blender.org
mtllib upcorridor.mtl
o upcorridor
v 1.000000 2.000000 -6.000000
v 1.000000 0.000000 -0.000000
v -1.000000 0.000000 -0.000001
v -1.000000 2.000000 -6.000001
v 1.000000 4.000000 -5.999999
v 0.999999 2.000000 0.000002
v -1.000000 2.000000 -0.000001
v -1.000000 4.000000 -6.000000
vn -0.0000 0.9487 0.3162
vn 0.0000 -0.9487 -0.3162
vn -1.0000 -0.0000 -0.0000
vn 1.0000 0.0000 0.0000
usemtl Material
s off
f 1//1 4//1 3//1 2//1
f 5//2 6//2 7//2 8//2
f 1//3 2//3 6//3 5//3
f 3//4 4//4 8//4 7//4
