# Blender v2.79 (sub 0) OBJ File: 'start.blend'
# www.blender.org
mtllib start.mtl
o Cube_CubeStart
v 1.000000 0.000000 0.000000
v 1.000000 0.000000 2.000000
v -1.000000 0.000000 2.000000
v -1.000000 0.000000 -0.000000
v 1.000000 2.000000 0.000001
v 0.999999 2.000000 2.000001
v -1.000000 2.000000 2.000000
v -1.000000 2.000000 0.000000
vn 0.0000 1.0000 0.0000
vn 0.0000 -1.0000 0.0000
vn -1.0000 -0.0000 -0.0000
vn 1.0000 0.0000 0.0000
vn 0.0000 0.0000 -1.0000
usemtl Material
s off
f 1//1 4//1 3//1 2//1
f 5//2 6//2 7//2 8//2
f 1//3 2//3 6//3 5//3
f 3//4 4//4 8//4 7//4
f 3//5 7//5 6//5 2//5
